<svg xmlns="http://www.w3.org/2000/svg" version="1.1" xmlns:xlink="http://www.w3.org/1999/xlink" xmlns:svgjs="http://svgjs.dev/svgjs" width="1440" height="560" preserveAspectRatio="none" viewBox="0 0 1440 560"><g mask="url(&quot;#SvgjsMask1000&quot;)" fill="none"><rect width="1440" height="560" x="0" y="0" fill="#1e3266"></rect><path d="M1488 560L0 560 L0 361.85Q34.36 276.21, 120 310.56Q150.94 269.5, 192 300.45Q252.15 288.6, 264 348.75Q310.97 275.72, 384 322.68Q438.66 257.34, 504 311.99Q564.88 300.88, 576 361.76Q595.47 309.23, 648 328.7Q676.33 285.03, 720 313.36Q795.65 269.01, 840 344.66Q912.74 297.4, 960 370.14Q997.75 287.89, 1080 325.64Q1107.26 280.9, 1152 308.17Q1212.31 296.48, 1224 356.79Q1266.14 326.94, 1296 369.08Q1307.09 308.17, 1368 319.26Q1417.89 249.15, 1488 299.04z" fill="#182f5d"></path><path d="M1488 560L0 560 L0 398.09Q28.57 354.66, 72 383.23Q146.79 338.02, 192 412.82Q257.18 358, 312 423.18Q339.18 330.36, 432 357.54Q480.54 334.08, 504 382.62Q590.99 349.61, 624 436.59Q646.35 338.93, 744 361.28Q813.54 310.82, 864 380.36Q906.52 350.88, 936 393.4Q978.31 315.71, 1056 358.02Q1115.16 345.19, 1128 404.35Q1154.68 359.03, 1200 385.71Q1226.24 339.95, 1272 366.19Q1302.18 324.38, 1344 354.56Q1403.66 342.23, 1416 401.89Q1440.28 354.16, 1488 378.44z" fill="#25467d"></path><path d="M1536 560L0 560 L0 451.97Q57.98 437.95, 72 495.93Q74.57 426.5, 144 429.07Q217.93 383, 264 456.92Q307.98 428.9, 336 472.89Q370.01 386.9, 456 420.92Q504.49 397.41, 528 445.9Q590.95 436.85, 600 499.8Q627.22 407.02, 720 434.24Q765.97 408.21, 792 454.17Q839.5 429.68, 864 477.18Q881.79 422.97, 936 440.75Q980.29 413.04, 1008 457.34Q1025.55 402.88, 1080 420.43Q1128.8 397.23, 1152 446.02Q1211.91 433.94, 1224 493.85Q1247.86 445.71, 1296 469.56Q1335.22 388.78, 1416 428Q1510.87 402.87, 1536 497.74z" fill="#356cb1"></path><path d="M1464 560L0 560 L0 566.15Q50.02 496.17, 120 546.2Q134.36 488.56, 192 502.92Q259.16 450.08, 312 517.24Q381.01 514.25, 384 583.27Q407.18 534.45, 456 557.64Q474.6 504.24, 528 522.84Q572.51 447.36, 648 491.87Q713.56 437.43, 768 502.98Q819.79 482.77, 840 534.56Q912.51 487.07, 960 559.58Q1003.2 530.78, 1032 573.97Q1054.8 476.77, 1152 499.57Q1220.97 448.54, 1272 517.52Q1361.09 486.61, 1392 575.7Q1411.03 522.74, 1464 541.77z" fill="white"></path></g><defs><mask id="SvgjsMask1000"><rect width="1440" height="560" fill="#ffffff"></rect></mask></defs></svg>